<?xml version="1.0" standalone="no"?>
<!DOCTYPE svg PUBLIC "-//W3C//DTD SVG 20010904//EN"
 "http://www.w3.org/TR/2001/REC-SVG-20010904/DTD/svg10.dtd">
<svg version="1.0" xmlns="http://www.w3.org/2000/svg"
 width="200.000000pt" height="200.000000pt" viewBox="0 0 200.000000 200.000000"
 preserveAspectRatio="xMidYMid meet">

<g transform="translate(0.000000,200.000000) scale(0.100000,-0.100000)"
fill="#000000" stroke="none">
<path d="M1198 1916 c-66 -18 -116 -60 -144 -120 -72 -155 34 -325 204 -326
241 -1 314 324 97 433 -46 22 -105 28 -157 13z m149 -78 c76 -46 102 -159 53
-231 -89 -130 -290 -86 -307 67 -17 143 131 238 254 164z"/>
<path d="M1145 1705 c39 -18 55 -18 55 0 0 11 -11 15 -42 14 l-43 -1 30 -13z"/>
<path d="M1233 1704 c-3 -8 -1 -20 5 -26 16 -16 42 -2 42 22 0 24 -38 28 -47
4z"/>
<path d="M1132 1448 c-30 -30 9 -78 62 -78 l34 0 7 -66 c4 -37 7 -125 6 -198
0 -187 -40 -326 -110 -390 -21 -19 -22 -19 -44 1 -42 39 -90 56 -169 61 l-78
5 0 151 c0 176 -3 185 -83 214 -156 59 -508 54 -627 -8 -64 -33 -60 -8 -60
-410 l0 -367 24 -22 c37 -35 137 -60 280 -72 131 -11 131 -11 183 -50 28 -22
67 -43 87 -46 l36 -6 0 153 c0 135 2 151 16 146 9 -3 22 -6 30 -6 11 0 14 -17
14 -75 0 -81 3 -84 50 -60 43 22 50 43 50 148 l0 94 88 5 c48 3 106 13 129 23
l43 17 87 -90 c76 -78 96 -92 142 -106 144 -42 268 2 351 126 47 70 87 191 96
287 6 63 9 68 35 78 26 10 29 16 29 59 0 43 4 50 41 82 55 47 69 84 69 182 0
95 -14 134 -63 177 -95 83 -242 63 -308 -44 -21 -33 -24 -51 -24 -128 0 -105
19 -154 71 -188 30 -20 34 -27 34 -67 0 -52 7 -65 38 -74 27 -9 28 -34 7 -138
-31 -150 -113 -269 -204 -296 -113 -34 -214 7 -302 123 l-41 55 30 37 c80 103
113 222 114 418 1 77 -2 168 -6 203 l-8 62 35 0 c43 0 69 23 65 59 -2 21 -7
25 -28 23 -51 -7 -166 -7 -191 0 -15 5 -30 3 -37 -4z m-412 -336 c36 -12 74
-28 85 -36 19 -14 18 -16 -22 -33 l-43 -18 0 -257 c0 -272 1 -269 -44 -252
-14 5 -16 31 -16 189 l0 183 -35 6 c-19 4 -55 23 -81 42 -61 46 -83 54 -162
54 -87 1 -207 23 -266 48 -25 12 -46 23 -46 26 0 12 78 44 130 55 30 6 64 13
75 15 11 3 97 3 190 2 139 -3 182 -7 235 -24z m305 -422 l37 -23 -27 -15 c-16
-8 -66 -17 -112 -20 l-83 -5 0 40 c0 22 3 43 8 47 15 16 139 -1 177 -24z"/>
</g>
</svg>
