<?xml version="1.0" standalone="no"?>
<!DOCTYPE svg PUBLIC "-//W3C//DTD SVG 20010904//EN"
 "http://www.w3.org/TR/2001/REC-SVG-20010904/DTD/svg10.dtd">
<svg version="1.0" xmlns="http://www.w3.org/2000/svg"
 width="512.000000pt" height="512.000000pt" viewBox="0 0 512.000000 512.000000"
 preserveAspectRatio="xMidYMid meet">

<g transform="translate(0.000000,512.000000) scale(0.100000,-0.100000)"
fill="#000000" stroke="none">
<path d="M1350 4949 c-129 -15 -229 -39 -417 -100 -133 -44 -186 -66 -198 -82
-13 -19 -15 -105 -15 -687 0 -579 2 -668 15 -687 17 -25 321 -129 463 -159
l82 -17 0 -336 0 -335 -70 77 c-80 86 -157 131 -252 147 -139 22 -318 -48
-318 -126 0 -17 128 -231 380 -634 209 -335 387 -624 395 -644 21 -49 19 -93
-20 -676 -27 -402 -32 -516 -22 -522 6 -4 42 -8 79 -8 l66 0 7 72 c15 182 65
975 65 1041 0 40 -7 96 -15 124 -10 32 -146 261 -376 628 -198 317 -358 579
-355 582 3 3 30 5 60 5 91 -1 138 -33 266 -188 l110 -132 0 -66 0 -66 80 0 80
0 0 520 0 520 80 0 80 0 0 -520 0 -520 80 0 80 0 0 375 0 376 25 24 c32 33 78
33 110 0 l25 -24 0 -376 0 -375 80 0 80 0 0 295 0 296 25 24 c32 33 78 33 110
0 l25 -24 0 -296 0 -295 80 0 80 0 0 215 c0 216 0 216 25 240 32 33 78 33 111
0 l25 -25 -3 -423 -3 -422 -25 -54 c-13 -30 -51 -91 -84 -135 -82 -111 -109
-173 -114 -266 -3 -63 43 -834 64 -1063 l6 -67 67 0 c36 0 71 4 78 8 10 6 4
131 -24 560 -31 464 -35 559 -25 598 7 26 40 85 78 137 74 103 87 126 117 206
20 53 21 78 25 489 4 501 4 499 -77 575 -58 54 -112 72 -193 63 -58 -6 -58 -6
-72 27 -16 38 -68 92 -110 115 -22 12 -56 17 -114 17 -84 1 -84 1 -97 31 -7
16 -27 44 -45 62 -53 54 -86 67 -172 67 l-78 0 0 51 0 51 83 17 c141 30 445
134 462 159 13 19 15 108 15 687 0 582 -2 668 -15 687 -12 16 -65 38 -198 82
-311 101 -514 128 -757 100z m625 -414 l25 -24 0 -311 0 -311 -25 -24 -24 -25
-431 0 -431 0 -24 25 -25 24 0 311 0 311 25 24 24 25 431 0 431 0 24 -25z
m-295 -935 l0 -80 -160 0 -160 0 0 80 0 80 160 0 160 0 0 -80z"/>
<path d="M1200 4200 l0 -200 320 0 320 0 0 200 0 200 -320 0 -320 0 0 -200z"/>
<path d="M3088 4785 c-224 -37 -498 -173 -633 -314 l-29 -32 55 -55 55 -55 68
60 c408 352 1027 328 1410 -55 404 -403 406 -1058 5 -1463 -112 -113 -264
-209 -405 -255 -28 -9 -60 -27 -72 -39 -11 -12 -88 -125 -171 -252 l-150 -229
-14 34 c-8 19 -49 128 -92 243 -43 114 -83 207 -89 207 -20 0 -136 -45 -136
-52 0 -4 54 -153 120 -330 76 -204 129 -329 142 -340 21 -18 54 -23 83 -12 9
4 106 143 216 309 196 297 200 303 247 320 526 198 849 742 768 1293 -39 266
-148 484 -336 673 -173 175 -371 283 -612 335 -103 22 -322 27 -430 9z"/>
<path d="M3232 4383 c-37 -34 -455 -744 -481 -818 -71 -210 -17 -449 136 -600
221 -219 570 -218 788 2 152 153 205 389 134 598 -26 74 -444 784 -481 818
-11 9 -33 17 -48 17 -15 0 -37 -8 -48 -17z m172 -676 c77 -128 89 -169 84
-276 -3 -70 -10 -99 -32 -144 -26 -55 -105 -147 -125 -147 -6 0 -29 27 -51 60
l-41 61 32 36 c43 50 59 92 59 158 0 59 -11 88 -80 200 l-39 63 67 41 c37 22
68 40 69 41 1 0 27 -42 57 -93z"/>
<path d="M2720 4160 l0 -80 80 0 80 0 0 80 0 80 -80 0 -80 0 0 -80z"/>
<path d="M3680 4080 l0 -80 80 0 80 0 0 80 0 80 -80 0 -80 0 0 -80z"/>
<path d="M2480 3760 l0 -80 80 0 80 0 0 80 0 80 -80 0 -80 0 0 -80z"/>
<path d="M4000 3680 l0 -80 80 0 80 0 0 80 0 80 -80 0 -80 0 0 -80z"/>
<path d="M3195 1393 c-8 -53 -41 -125 -79 -170 -33 -39 -129 -90 -188 -98
l-48 -7 0 -79 c0 -90 -4 -87 91 -69 183 34 344 195 379 379 18 95 21 91 -69
91 l-79 0 -7 -47z"/>
<path d="M3436 1085 c-10 -51 -60 -103 -112 -117 l-44 -12 0 -79 0 -79 48 7
c59 8 155 59 188 98 38 45 71 117 79 170 l7 47 -80 0 -80 0 -6 -35z"/>
</g>
</svg>
