<svg xmlns="http://www.w3.org/2000/svg" xmlns:xlink="http://www.w3.org/1999/xlink" viewBox="0 0 595.28 841.89"><defs><style>.cls-1,.cls-10,.cls-11,.cls-12,.cls-13,.cls-14,.cls-15,.cls-16,.cls-17,.cls-18,.cls-19,.cls-20,.cls-21,.cls-22,.cls-23,.cls-24,.cls-25,.cls-26,.cls-27,.cls-28,.cls-29,.cls-30,.cls-31,.cls-32,.cls-8,.cls-9{fill:none;}.cls-2{isolation:isolate;}.cls-3,.cls-37,.cls-38{fill:#fff;}.cls-4{fill:url(#Degradado_sin_nombre_9);}.cls-5{clip-path:url(#clip-path);}.cls-34,.cls-35,.cls-36,.cls-38,.cls-39,.cls-6{opacity:0.1;}.cls-10,.cls-11,.cls-12,.cls-13,.cls-14,.cls-15,.cls-16,.cls-17,.cls-18,.cls-19,.cls-20,.cls-21,.cls-22,.cls-23,.cls-24,.cls-25,.cls-26,.cls-27,.cls-28,.cls-29,.cls-30,.cls-31,.cls-32,.cls-37,.cls-7,.cls-8,.cls-9{opacity:0.5;}.cls-10,.cls-11,.cls-12,.cls-13,.cls-14,.cls-15,.cls-16,.cls-17,.cls-18,.cls-19,.cls-20,.cls-21,.cls-22,.cls-23,.cls-24,.cls-25,.cls-26,.cls-27,.cls-28,.cls-29,.cls-30,.cls-31,.cls-32,.cls-8,.cls-9{stroke:#fff;stroke-linecap:round;stroke-miterlimit:10;}.cls-8{stroke-width:6.85px;}.cls-9{stroke-width:6.71px;}.cls-10{stroke-width:6.56px;}.cls-11{stroke-width:6.41px;}.cls-12{stroke-width:6.27px;}.cls-13{stroke-width:6.12px;}.cls-14{stroke-width:5.98px;}.cls-15{stroke-width:5.83px;}.cls-16{stroke-width:5.68px;}.cls-17{stroke-width:5.54px;}.cls-18{stroke-width:5.39px;}.cls-19{stroke-width:5.24px;}.cls-20{stroke-width:5.1px;}.cls-21{stroke-width:4.95px;}.cls-22{stroke-width:4.8px;}.cls-23{stroke-width:4.66px;}.cls-24{stroke-width:4.51px;}.cls-25{stroke-width:4.37px;}.cls-26{stroke-width:4.22px;}.cls-27{stroke-width:4.07px;}.cls-28{stroke-width:3.93px;}.cls-29{stroke-width:3.78px;}.cls-30{stroke-width:3.63px;}.cls-31{stroke-width:3.49px;}.cls-32{stroke-width:3.34px;}.cls-33{clip-path:url(#clip-path-2);}.cls-34{fill:url(#radial-gradient);}.cls-35{fill:#09616c;}.cls-36,.cls-54{fill:#03373a;}.cls-37,.cls-38{mix-blend-mode:overlay;}.cls-39{fill:url(#radial-gradient-2);}.cls-40{fill:url(#Degradado_sin_nombre_8);}.cls-41{fill:#0a5961;}.cls-42{opacity:0.67;}.cls-43{fill:url(#Degradado_sin_nombre_9-2);}.cls-44{fill:url(#Degradado_sin_nombre_9-3);}.cls-45{fill:url(#Degradado_sin_nombre_9-4);}.cls-46{fill:url(#Degradado_sin_nombre_9-5);}.cls-47{fill:url(#Degradado_sin_nombre_9-6);}.cls-48{fill:url(#Degradado_sin_nombre_9-7);}.cls-49{fill:url(#Degradado_sin_nombre_9-8);}.cls-50{fill:url(#Degradado_sin_nombre_9-9);}.cls-51{fill:url(#Degradado_sin_nombre_9-10);}.cls-52{fill:url(#Degradado_sin_nombre_9-11);}.cls-53{fill:url(#Degradado_sin_nombre_9-12);}.cls-54{font-size:10px;font-family:TimesNewRomanPSMT, Times New Roman;letter-spacing:0.2em;}.cls-55{fill:url(#Degradado_sin_nombre_6);}.cls-56{fill:url(#Degradado_sin_nombre_6-2);}</style><linearGradient id="Degradado_sin_nombre_9" x1="392.01" y1="855.26" x2="184.97" y2="-96.9" gradientUnits="userSpaceOnUse"><stop offset="0" stop-color="#085a64" stop-opacity="0.4"/><stop offset="0.17" stop-color="#1e6871" stop-opacity="0.32"/><stop offset="0.61" stop-color="#48838a" stop-opacity="0.15"/><stop offset="1" stop-color="#568c93" stop-opacity="0.1"/></linearGradient><clipPath id="clip-path"><rect class="cls-1" x="-8.55" y="-8.44" width="612.28" height="858.9"/></clipPath><clipPath id="clip-path-2"><rect class="cls-1" x="-8.55" y="-8.44" width="612.28" height="858.9" transform="translate(595.18 842.02) rotate(180)"/></clipPath><radialGradient id="radial-gradient" cx="-434.04" cy="4134.7" r="856.62" gradientTransform="translate(1243.45 -3543.96) rotate(6.42)" gradientUnits="userSpaceOnUse"><stop offset="0" stop-color="#17b0ce"/><stop offset="0.14" stop-color="#2097b9"/><stop offset="0.41" stop-color="#2f6e96"/><stop offset="0.65" stop-color="#39507d"/><stop offset="0.85" stop-color="#403e6e"/><stop offset="1" stop-color="#423768"/></radialGradient><radialGradient id="radial-gradient-2" cx="3494.74" cy="6470.35" r="784.93" gradientTransform="matrix(-0.86, -0.52, 0.52, -0.86, -54.49, 7685.03)" xlink:href="#radial-gradient"/><linearGradient id="Degradado_sin_nombre_8" x1="2169.51" y1="6927.3" x2="2941.87" y2="6927.3" gradientTransform="translate(623.23 7576.74) rotate(-162.92)" gradientUnits="userSpaceOnUse"><stop offset="0.67" stop-color="#09616c"/><stop offset="0.76" stop-color="#0b6471" stop-opacity="0.94"/><stop offset="0.87" stop-color="#126d7f" stop-opacity="0.75"/><stop offset="0.98" stop-color="#1e7c97" stop-opacity="0.45"/><stop offset="1" stop-color="#207e9b" stop-opacity="0.4"/></linearGradient><linearGradient id="Degradado_sin_nombre_9-2" x1="333.05" y1="681.43" x2="169.86" y2="470.7" xlink:href="#Degradado_sin_nombre_9"/><linearGradient id="Degradado_sin_nombre_9-3" x1="356.36" y1="663.38" x2="193.17" y2="452.65" xlink:href="#Degradado_sin_nombre_9"/><linearGradient id="Degradado_sin_nombre_9-4" x1="308.6" y1="700.37" x2="145.41" y2="489.63" xlink:href="#Degradado_sin_nombre_9"/><linearGradient id="Degradado_sin_nombre_9-5" x1="385.8" y1="640.59" x2="222.61" y2="429.85" xlink:href="#Degradado_sin_nombre_9"/><linearGradient id="Degradado_sin_nombre_9-6" x1="442.4" y1="596.75" x2="279.21" y2="386.02" xlink:href="#Degradado_sin_nombre_9"/><linearGradient id="Degradado_sin_nombre_9-7" x1="364.14" y1="657.36" x2="200.95" y2="446.62" xlink:href="#Degradado_sin_nombre_9"/><linearGradient id="Degradado_sin_nombre_9-8" x1="345.16" y1="672.06" x2="181.97" y2="461.33" xlink:href="#Degradado_sin_nombre_9"/><linearGradient id="Degradado_sin_nombre_9-9" x1="324.04" y1="688.41" x2="160.85" y2="477.67" xlink:href="#Degradado_sin_nombre_9"/><linearGradient id="Degradado_sin_nombre_9-10" x1="305.31" y1="702.91" x2="142.12" y2="492.18" xlink:href="#Degradado_sin_nombre_9"/><linearGradient id="Degradado_sin_nombre_9-11" x1="292.97" y1="712.47" x2="129.78" y2="501.74" xlink:href="#Degradado_sin_nombre_9"/><linearGradient id="Degradado_sin_nombre_9-12" x1="390.21" y1="637.17" x2="227.02" y2="426.44" xlink:href="#Degradado_sin_nombre_9"/><linearGradient id="Degradado_sin_nombre_6" x1="175.1" y1="-143.86" x2="175.1" y2="-98.19" gradientTransform="translate(115.99 284.33)" gradientUnits="userSpaceOnUse"><stop offset="0" stop-color="#085a64"/><stop offset="1" stop-color="#207e9b" stop-opacity="0.5"/></linearGradient><linearGradient id="Degradado_sin_nombre_6-2" x1="-4641.62" y1="-7288.93" x2="-4641.62" y2="-7243.25" gradientTransform="translate(4932.71 7429.39)" xlink:href="#Degradado_sin_nombre_6"/></defs><g class="cls-2"><g id="PRINT"><rect class="cls-3" x="-8.55" y="-8.44" width="612.28" height="858.9"/><rect class="cls-4" x="-8.55" y="-8.44" width="612.28" height="858.9"/><g class="cls-5"><g class="cls-6"><g class="cls-7"><path class="cls-3" d="M-503.72,395.29c18.34,10.91,37,21.24,55.81,31.38s37.73,20,56.78,29.58q57.15,28.89,115.55,55.17Q-158.83,564-37.87,606.36c80.55,28.17,162.35,52.78,245.22,73a2229.13,2229.13,0,0,0,251.4,46.88q63.47,7.92,127.33,11.7c42.56,2.39,85.19,3.4,127.8,2.68,85.2-1.48,170.35-9.59,254-25.79s165.76-40.25,244.39-72.89a903.83,903.83,0,0,0,113.92-57.23,878,878,0,0,0,104.49-73,952.69,952.69,0,0,0,93.21-87,1175.1,1175.1,0,0,0,82-97.84c51.28-68.06,96.1-140.78,139.26-214.36S1830-35.66,1875.29-108.16c22.67-36.23,46.28-71.92,71.44-106.52a1197.15,1197.15,0,0,1,80.69-99.78,928.73,928.73,0,0,1,92.38-89.1A819,819,0,0,1,2224.31-478,855.5,855.5,0,0,1,2339-535.47a961.94,961.94,0,0,1,121.7-40.42c10.32-2.78,20.74-5.17,31.13-7.67,10.45-2.27,20.87-4.66,31.37-6.67,10.46-2.17,21-4,31.51-5.88l15.82-2.58,7.92-1.26,7.93-1.14c21.13-3.17,42.37-5.56,63.62-7.73,10.64-.95,21.27-2,31.93-2.74,5.33-.38,10.65-.83,16-1.16l16-.94c85.32-4.73,170.89-2.64,256,3.75-42.6-2.85-85.27-4.59-128-5l-16-.15-16,.08c-10.67,0-21.34.27-32,.46-5.34.07-10.67.29-16,.47l-16,.55-16,.79-8,.39c-2.66.14-5.32.34-8,.51l-16,1c-5.32.36-10.63.85-15.95,1.26-10.64.79-21.24,1.92-31.86,2.94-21.2,2.29-42.39,4.81-63.46,8.11l-7.91,1.18-7.88,1.31-15.77,2.67c-10.48,2-21,3.83-31.4,6.07-10.46,2.06-20.83,4.51-31.23,6.84-10.35,2.56-20.72,5-31,7.84a959,959,0,0,0-121,40.81A849.06,849.06,0,0,0,2226.71-474q-27.3,16.55-53.27,35.18t-50.37,39.21a922.53,922.53,0,0,0-91.56,88.89,1193.88,1193.88,0,0,0-80,99.56c-25,34.51-48.45,70.13-71,106.32-45.09,72.4-86.54,147.06-129.66,220.81s-88,146.67-139.54,215.11a1179.9,1179.9,0,0,1-82.39,98.47,946.9,946.9,0,0,1-93.86,87.69,885.74,885.74,0,0,1-105.37,73.5,910.12,910.12,0,0,1-114.82,57.59,1255.89,1255.89,0,0,1-245.78,73C885,737.44,799.5,745.42,714,746.74q-64.15,1-128.24-3T458.07,731.63a2207.16,2207.16,0,0,1-251.8-47.85C123.34,663.1,41.51,638.15-39,609.53s-159.68-60.91-237.34-96.45q-58.25-26.69-115.26-55.91-28.49-14.66-56.56-30.05C-466.86,416.83-485.46,406.35-503.72,395.29Z"/></g><path class="cls-8" d="M-502.29,360.86s928.85,580.56,1706.8,251.79S1702-699.31,2979-612.19"/><path class="cls-9" d="M-500.87,326.43s932.28,595.4,1711,247.68S1722.05-696.64,2988-614.48"/><path class="cls-10" d="M-499.44,292S436.25,902.24,1215.84,535.58,1742.14-694,2997-616.76"/><path class="cls-11" d="M-498,257.57S441.09,882.66,1221.5,497,1762.24-691.29,3006-619"/><path class="cls-12" d="M-496.58,223.14S445.94,863.07,1227.17,458.51,1782.33-688.62,3015-621.32"/><path class="cls-13" d="M-495.15,188.72S450.78,843.49,1232.83,420,1802.42-685.95,3024-623.6"/><path class="cls-14" d="M-493.72,154.29S455.63,823.9,1238.49,381.44s584-1064.72,1794.57-1007.32"/><path class="cls-15" d="M-492.3,119.86s952.77,684.45,1736.46,223S1842.61-680.6,3042.07-628.16"/><path class="cls-16" d="M-490.87,85.43s956.19,699.3,1740.69,218.94,612.88-982.3,1801.27-934.82"/><path class="cls-17" d="M-489.44,51s959.6,714.14,1744.92,214.83S1882.8-675.26,3060.11-632.73"/><path class="cls-18" d="M-488,16.58s963,729,1749.16,210.72,641.74-899.89,1808-862.31"/><path class="cls-19" d="M-486.58-17.85S479.85,726,1266.81,188.76s656.17-858.67,1811.33-826"/><path class="cls-20" d="M-485.15-52.28S484.69,706.38,1272.47,150.23s670.61-817.47,1814.69-789.8"/><path class="cls-21" d="M-483.73-86.71S489.54,686.8,1278.14,111.7s685-776.27,1818-753.55"/><path class="cls-22" d="M-482.3-121.14S494.38,667.21,1283.8,73.16,1983.26-661.9,3105.19-644.13"/><path class="cls-23" d="M-480.87-155.57s980.09,803.2,1770.33,190.2,713.9-693.85,1824.75-681"/><path class="cls-24" d="M-479.44-190S504.07,628,1295.13-3.91,2023.45-656.55,3123.22-648.7"/><path class="cls-25" d="M-478-224.42s986.92,832.88,1778.8,182S2043.54-653.88,3132.24-651"/><path class="cls-26" d="M-476.58-258.85S513.76,588.87,1306.46-81s757.18-570.23,1834.8-572.28"/><path class="cls-27" d="M-475.16-293.28S518.6,569.28,1312.12-119.51s771.61-529,1838.15-536"/><path class="cls-28" d="M-473.73-327.71S523.44,549.7,1317.78-158s786-487.81,1841.51-499.77"/><path class="cls-29" d="M-472.3-362.13S528.29,530.11,1323.45-196.58,2123.92-643.19,3168.31-660.1"/><path class="cls-30" d="M-470.87-396.56s1004,907.09,1800,161.44S2144-640.52,3177.32-662.39"/><path class="cls-31" d="M-469.44-431S538,490.94,1334.77-273.65s829.33-364.19,1851.57-391"/><path class="cls-32" d="M-468-465.42S542.82,471.35,1340.44-312.18s843.76-323,1854.92-354.77"/></g></g><g class="cls-33"><path class="cls-34" d="M870.34,281.39C788.06,465.13,563.17,894-25.88,705.39l14.21,225.78L787,1021.11Z"/><path class="cls-35" d="M870.34,281.39C788.06,465.13,563.17,894-25.88,705.39l14.21,225.78L787,1021.11Z"/><path class="cls-36" d="M884.85,329.38C802.58,513.12,577.69,942-11.37,753.38L2.84,979.16l798.71,89.94Z"/><path class="cls-37" d="M159.35,823.24C5,821.66-199.61,822-282.24,723.13l52.62-93.19-75.24,56.45,53.63,342.85c89.64,24.3,188.29,31.7,291.64,18.85,379.69-47.24,687-350.89,714.51-692.92C708.13,618,445.24,826.18,159.35,823.24Z"/><path class="cls-38" d="M265.37,851.36C78.06,919.13-169,1011.89-313.46,929.69l21.53-136.36L-357.39,895.5l219.57,390.12c119.29-11.09,241.85-46.68,360.94-108.85C660.64,948.3,894.9,442.67,773.83,16.89,835.92,355.64,612.19,725.86,265.37,851.36Z"/><path class="cls-39" d="M-237.64,335.46C-98.85,213.78,252.48-57.68,671.75,324.28l74.36-193.52L114.31-249Z"/><path class="cls-40" d="M-254.18,416.06C-148.87,264.53,160-63.9,614.33,219.54L651.11-19.63-53.67-236Z"/><path class="cls-41" d="M-217.27,402.71C-129.13,240.61,177.28-148.59,638.5,79L635-129,119.23-372.17l-422,136.77Z"/><path class="cls-37" d="M485.11,122.55c132.6,49.76,309,113.56,349.25,224.61l-74.59,63.75,82.57-25,61.31-312C834,24.83,751.29-12.46,658.17-33.79,316.06-112.12-44,53.05-175.1,338.93-52.31,127.27,239.59,30.42,485.11,122.55Z"/><path class="cls-38" d="M402.54,65.1c182.72.36,424.77-2.09,523.53,114L864.73,289.75l88.48-67.46L886.32-182.46C780-210.3,663.2-218.07,541-201.86,92.23-142.25-268.31,219.71-297.51,624.3-244.77,313.14,64.21,64.47,402.54,65.1Z"/></g><g class="cls-42"><path class="cls-43" d="M298.47,626.32v.07a15.15,15.15,0,0,1-15-15.26,16.14,16.14,0,0,1,7-13.29,51.79,51.79,0,0,1-19.53-6.7,36.45,36.45,0,0,0-6.49,20c0,18,16.3,32.64,34,32.64v-.07a9.8,9.8,0,0,1,9.69,9.88c0,4.33-2.76,9-6.59,10.79a19.88,19.88,0,0,1,10.05,5.94,24.67,24.67,0,0,1,3.14,4.16,25.63,25.63,0,0,0,10.46-20.89C325.22,638.54,313.23,626.32,298.47,626.32Z"/><path class="cls-44" d="M297.05,574.79c-11.2,0-26.43-6.1-26.43-17.5,0-.24,0-.45,0-.69a16.85,16.85,0,0,1-9.6-11.5c.08-.16.18-.29.24-.44A17.72,17.72,0,0,0,275,550.89c7,0,13.06-3.78,15.67-9.18-1.7-6.76-8.48-11.81-16.62-11.81a18.24,18.24,0,0,0-11.76,4.19,18.5,18.5,0,0,0-3.09,3.08,38.4,38.4,0,0,0-5.66,20.12c0,21,17.79,37.39,43.51,38.06,8.27,0,15,7.35,15,15.78a15.26,15.26,0,0,1-9.55,14.21A28.6,28.6,0,0,1,320,634.77a31.86,31.86,0,0,0,11-23.64C331,593.11,314.73,574.79,297.05,574.79Zm-21.2-36.55a12.9,12.9,0,0,1,5.64,1.25c-.11.1-.25.17-.37.27-.48,0-1-.09-1.45-.09a12.44,12.44,0,0,0-5.25,1.16,14.4,14.4,0,0,1-2.93-1.85A12.9,12.9,0,0,1,275.85,538.24Z"/><path class="cls-45" d="M297.05,665.12v0c-5.35,0-9.69-6.05-9.69-11.49A9.87,9.87,0,0,1,291,646a37.11,37.11,0,0,1-15.78-8,27.27,27.27,0,0,0-4.87,15.62c0,15,12,26.17,26.75,26.17a9.72,9.72,0,0,1,1.69.39c5.54,1.49,9.64,7.69,9.64,13.8a13.06,13.06,0,0,1-10.62,12.9,13.05,13.05,0,0,1-10.62-12.9,15.4,15.4,0,0,1,5.35-11.49,29,29,0,0,1-11.41-4.37,19.7,19.7,0,0,0-1.55,8.1c.45,11.52,6.6,20.14,17.52,20.85v.14c.25,0,.46-.06.71-.07s.46.07.71.07V707c10.9-.71,17.07-9.33,17.51-20.85C316.34,677.18,308.87,665.12,297.05,665.12Z"/><path class="cls-46" d="M333.21,534.09a18.21,18.21,0,0,0-11.74-4.19c-8.15,0-15,5.05-16.62,11.81,2.59,5.4,8.62,9.18,15.67,9.18a17.67,17.67,0,0,0,13.71-6.23c.08.15.17.28.24.44a16.82,16.82,0,0,1-9.58,11.5c0,.24,0,.45,0,.69,0,9.64-10.89,15.47-21,17.06,7.7,1.85,15.05,6.76,20.51,13.64,11-6.87,17.58-17.93,17.58-30.7a38.31,38.31,0,0,0-5.66-20.12A17.52,17.52,0,0,0,333.21,534.09Zm-12.12,6.74a12.48,12.48,0,0,0-5.26-1.16c-.48,0-1,.05-1.44.09-.11-.1-.25-.17-.36-.27a13.24,13.24,0,0,1,10-.51A14.32,14.32,0,0,1,321.09,540.83Z"/><path class="cls-47" d="M419.56,470.36a19.69,19.69,0,0,0-.36-3.71l-83.46,4.08c-4.6.06-9.5,2-14.21,5,1.18,7.72-3.1,16.93-11.48,23a29.84,29.84,0,0,1-6.29,3.52c0,1.75-.16,12.64-.18,15.41a34.8,34.8,0,0,0,20.62-7.86l10.93,15.46a12,12,0,0,0,18.75,1.24L345,515.07,360.22,523a12.1,12.1,0,0,0,16.39-5.42,12.27,12.27,0,0,0,.86-2.22l-19.23-8.83,26.87,4.36a15.08,15.08,0,0,0,17.25-15.55l-49.45-5.55h47.53A19.28,19.28,0,0,0,419.56,470.36Z"/><path class="cls-48" d="M260.16,525.23l10.91-15.46a34.91,34.91,0,0,0,20.62,7.86c0-2.74-.17-13.66-.19-15.42a30.38,30.38,0,0,1-6.28-3.51c-8.37-6.07-12.66-15.28-11.46-23-4.71-3-9.61-4.91-14.23-5l-83.46-4.08a21.5,21.5,0,0,0-.35,3.71,19.28,19.28,0,0,0,19.12,19.44h47.55l-49.48,5.55a14.35,14.35,0,0,0,.17,2.91,15,15,0,0,0,17.09,12.64L237,506.54l-19.22,8.83a11.54,11.54,0,0,0,.85,2.22A12.1,12.1,0,0,0,235.06,523l15.25-7.94-8.9,11.4a11.87,11.87,0,0,0,1.74,1.57A12,12,0,0,0,260.16,525.23Z"/><path class="cls-49" d="M298.41,624.15a12.62,12.62,0,0,0,2.95-.73q.34-12.48.64-25c-.14-.07-.26-.15-.39-.2l-.84.08-2.52,0a11.49,11.49,0,0,0-4.54,1q.29,12.48.62,25c.9-.09,1.81-.15,2.72-.15Z"/><path class="cls-50" d="M299.17,663.05c.35,0,.69.11,1,.17.17-5.38.32-10.75.48-16.13a6.9,6.9,0,0,0-1-.23h-1.05a34.08,34.08,0,0,1-3.66-.25q.24,8,.47,16a5.74,5.74,0,0,0,1.6.24Z"/><path class="cls-51" d="M299.54,682.77l-.74.05a7.3,7.3,0,0,0-1,.23l-.13.06-.16,0a7.08,7.08,0,0,0-1.31.51c.26,7,.51,14.1.77,21.14a9.22,9.22,0,0,0,1.82-.4C299,697.19,299.28,690,299.54,682.77Z"/><path class="cls-52" d="M297.85,728.17q.34-9,.68-17.92c-.46,0-.91,0-1.39-.06Q297.49,719.18,297.85,728.17Z"/><path class="cls-53" d="M297.75,491.16a12.62,12.62,0,0,0,2.7-.3,12.34,12.34,0,0,1-4.48.84,12.17,12.17,0,0,1-4.12-.71q.36,40.6,1.16,81.38a31.79,31.79,0,0,0,3.93.25,27.43,27.43,0,0,1,5.51.6q.84-41.85,1.21-83.54a12.75,12.75,0,1,0-5.91,1.48Z"/></g><text class="cls-54" transform="translate(295.39 258.83)"> </text><polygon class="cls-3" points="313.93 155.88 298.51 155.88 298.51 140.47 283.67 140.47 283.67 155.88 268.25 155.88 268.25 170.73 283.67 170.73 283.67 186.14 298.51 186.14 298.51 170.73 313.93 170.73 313.93 155.88"/><rect class="cls-55" x="283.67" y="140.46" width="14.85" height="45.68"/><rect class="cls-56" x="283.67" y="140.46" width="14.85" height="45.68" transform="translate(454.39 -127.79) rotate(90)"/><path class="cls-3" d="M314.77,154.65l-15,0,0-15v-.39h-.39c-5.51,0-11,0-16.52.07h-.32v.32l.12,15.22-14.38.19,14.58.2H283V155l.12-15.1c5.28.05,10.55.05,15.83.07l0,15v.42h.42l15,0,0,7.87.05,7.95-15.1.12h-.2v.2l.19,14.57.2-14.38,15.22.12h.31v-.32l0-8.27,0-8.26v-.38Z"/><text/></g></g></svg>